<?xml version="1.0" encoding="utf-8"?>
<!-- Generator: Adobe Illustrator 16.0.0, SVG Export Plug-In . SVG Version: 6.00 Build 0)  -->
<!DOCTYPE svg PUBLIC "-//W3C//DTD SVG 1.1//EN" "http://www.w3.org/Graphics/SVG/1.1/DTD/svg11.dtd">
<svg version="1.1" id="Camada_1" xmlns="http://www.w3.org/2000/svg" xmlns:xlink="http://www.w3.org/1999/xlink" x="0px" y="0px"
	 width="1699.736px" height="567.341px" viewBox="102.464 324.229 1699.736 567.341"
	 enable-background="new 102.464 324.229 1699.736 567.341" xml:space="preserve">
<g id="Camada_x0020_1">
	<path fill="#201E1E" d="M763.424,587.68V335.496c0-2.022-0.867-3.467-2.022-4.622c-1.444-1.155-2.889-1.733-4.911-1.733h-33.509
		c-2.021,0-3.467,0.578-4.622,1.733s-2.021,2.6-2.021,4.622V587.68c0,3.177-0.289,5.777-0.867,7.51
		c-0.577,1.733-1.444,2.889-2.6,3.467s-2.889,0.866-4.911,0.866h-22.242c-2.022,0-3.467,0.578-4.911,1.733
		c-1.155,1.156-2.022,2.6-2.022,4.333v23.977c0,1.155,0.289,2.311,0.867,2.889c0.577,0.866,1.443,1.444,2.311,1.733
		c0.578,0.289,2.022,0.289,3.755,0.866c2.022,0.289,4.044,0.578,6.934,0.867c2.6,0.288,5.488,0.577,8.377,0.866
		s5.488,0.289,8.088,0.289c12.133,0,22.243-1.444,30.332-4.911c8.088-3.178,13.865-8.377,17.909-15.888
		C761.69,609.056,763.424,599.522,763.424,587.68z M963.61,576.413c0-0.289,0-0.866,0-1.155s-0.289-0.866-0.578-1.444l-53.44-99.082
		c9.244-3.467,17.332-8.378,24.265-14.732c6.934-6.355,12.133-13.866,15.889-22.821c3.755-8.955,5.777-19.354,5.777-31.486v-2.889
		c0-11.555-1.733-21.666-5.2-30.332c-3.466-8.666-8.088-15.888-14.154-21.665c-6.066-6.066-13.288-10.688-21.377-14.443
		c-8.088-3.467-17.043-6.355-26.864-7.8c-9.533-1.444-19.644-2.311-30.332-2.311c-8.377,0-16.465,0.289-24.265,0.578
		c-7.8,0.288-15.599,0.866-22.82,1.444c-6.934,0.866-13.577,1.444-19.354,2.311c-3.467,0.578-6.066,1.444-8.089,2.889
		c-1.733,1.444-2.889,4.044-2.889,7.222v233.407c0,2.022,0.867,3.466,2.022,4.911c1.444,1.155,2.889,2.021,4.911,2.021h33.798
		c2.021,0,3.466-0.866,4.621-2.021c1.156-1.445,1.733-2.889,1.733-4.911v-91.86c2.601,0,5.777,0.288,9.244,0.577
		s7.222,0.289,10.688,0.578c3.755,0.289,6.933,0.289,10.11,0.289h4.622l48.818,90.416c0.867,1.733,1.733,3.467,2.601,4.622
		c0.866,1.444,2.311,2.021,4.044,2.021h42.175c1.444,0,2.311-0.288,3.178-1.155C963.321,578.725,963.61,577.568,963.61,576.413z
		 M908.725,405.402c0,9.821-1.732,17.621-5.488,23.398c-3.466,5.777-9.243,9.821-16.754,12.421
		c-7.511,2.601-17.044,3.467-28.599,3.467c-1.444,0-3.467,0-6.355-0.289c-2.889,0-5.777-0.289-8.666-0.289
		c-3.178,0-6.066-0.288-8.666-0.288c-2.6-0.289-4.91-0.289-6.354-0.289v-76.262c1.444-0.289,3.755-0.289,6.354-0.578
		s5.488-0.289,8.378-0.577c2.889,0,5.777-0.289,8.666-0.289c2.6,0,4.91-0.289,6.933-0.289c17.043,0,29.754,2.889,38.131,8.666
		s12.71,15.021,12.71,27.731v3.467H908.725z M1120.467,512.284c0-6.644-0.578-12.999-2.022-19.354
		c-1.444-6.066-4.044-11.844-7.511-17.621c-3.466-5.777-8.377-11.266-14.443-16.466c-6.066-5.488-13.865-10.688-23.109-15.888
		l-40.73-22.82c-7.222-4.044-12.999-7.511-17.044-10.688c-4.044-3.178-6.933-6.355-8.377-9.244
		c-1.733-2.889-2.311-6.354-2.311-10.11c0-7.799,2.6-13.576,8.377-17.91c5.777-4.044,14.732-6.354,27.154-6.354
		c10.977,0,22.242,0.289,33.22,0.866c11.266,0.578,22.243,1.444,33.509,2.6c0.289,0,0.289,0,0.289,0h0.289
		c1.732,0,3.178-0.577,4.044-1.732c0.866-1.156,1.444-2.601,1.444-4.334v-25.131c0-1.733-0.578-3.178-1.733-4.333
		c-1.155-1.156-2.6-2.022-4.333-2.312c-2.889-0.577-6.933-1.444-11.844-2.021c-4.911-0.867-10.399-1.444-16.754-2.022
		c-6.066-0.578-12.422-1.155-18.777-1.444c-6.354-0.289-12.421-0.578-17.909-0.578c-15.6,0-28.888,1.733-39.864,4.911
		c-10.688,3.178-19.644,7.511-25.998,13.288c-6.645,5.777-11.556,12.71-14.444,20.51s-4.622,16.466-4.333,25.709
		c-0.289,7.8,0.867,15.311,3.467,22.532c2.311,7.222,6.355,13.866,12.133,20.51s13.865,12.999,24.265,19.065l44.775,26.865
		c7.511,4.333,13.288,8.088,17.332,11.555c4.333,3.467,7.222,6.933,8.955,10.11c1.733,3.467,2.6,7.222,2.6,11.555
		c0,6.644-1.155,12.133-3.467,16.755c-2.311,4.621-6.354,8.088-12.132,10.398c-5.777,2.312-13.577,3.467-23.688,3.467
		c-2.601,0-5.777,0-9.822-0.289c-3.755-0.289-8.088-0.289-12.999-0.577c-4.622-0.289-9.243-0.578-13.865-0.867
		c-4.622-0.288-8.955-0.577-12.999-0.866c-4.045-0.289-7.511-0.578-10.111-0.866c-0.288,0-0.288,0-0.288,0h-0.289
		c-1.733,0-3.178,0.577-4.333,1.732c-1.155,1.156-2.022,2.601-2.022,4.622v24.266c0,2.021,0.866,3.466,2.022,4.622
		c1.155,1.155,2.6,2.021,4.333,2.311c5.488,1.155,11.266,2.311,17.043,3.178c6.066,0.866,12.71,1.733,19.644,2.022
		c6.933,0.577,14.732,0.866,23.109,0.866c13.577,0,25.421-1.444,35.242-4.044c10.11-2.601,18.487-6.355,25.421-10.978
		c6.933-4.622,12.421-10.11,16.754-16.177c4.044-6.066,7.222-12.421,8.955-19.354
		C1119.601,526.149,1120.756,519.217,1120.467,512.284z"/>
	<path fill="#201E1E" d="M870.595,772.845v-2.6c0-0.866-0.289-1.733-0.578-2.022c-0.578-0.289-1.155-0.577-2.022-0.577
		c-0.289,0-0.866,0-1.155,0c-2.022,0.288-4.044,0.288-6.933,0.577c-2.601,0.289-5.777,0.289-8.955,0.578s-6.355,0.289-9.821,0.289
		c-3.467,0.289-6.645,0.289-9.822,0.289c-5.777,0-10.977-0.867-15.888-2.889c-4.911-2.022-9.244-5.2-12.999-9.533
		s-6.644-10.11-8.666-17.043c-2.022-6.934-3.178-15.6-3.178-25.421v-26.864c0-10.111,1.155-18.488,3.178-25.421
		s4.911-12.71,8.666-16.755c3.755-4.333,8.088-7.51,12.999-9.532s10.11-2.889,15.888-2.889c3.178,0,6.355,0,9.822,0.289
		c3.466,0,6.644,0.288,9.821,0.288c3.178,0.289,6.066,0.289,8.955,0.578c2.6,0.289,4.91,0.578,6.933,0.578c0.289,0,0.866,0,1.155,0
		c0.867,0,1.444,0,2.022-0.578c0.289-0.289,0.578-0.866,0.578-2.021v-2.312c0-1.155-0.578-2.022-1.156-2.6
		c-0.866-0.578-1.732-0.866-2.6-1.155c-2.6-0.289-6.933-0.867-12.71-1.155c-5.777-0.578-13.288-0.867-22.532-0.867
		c-5.199,0-10.11,0.578-15.021,2.022c-4.91,1.444-9.532,3.467-13.576,6.355c-4.045,2.889-7.8,6.933-11.267,11.843
		c-3.177,4.911-5.777,10.978-7.511,17.91c-1.732,7.222-2.6,15.6-2.6,25.132v26.865c0,9.821,0.867,18.198,2.6,25.42
		c1.733,7.223,4.334,13,7.511,17.91c3.178,4.911,6.934,8.955,11.267,11.844c4.044,2.889,8.666,4.911,13.576,6.355
		c4.911,1.155,9.822,2.021,15.021,2.021c9.244,0,16.755-0.288,22.532-0.866c5.777-0.577,10.11-0.866,12.71-1.155
		c0.867,0,1.733-0.289,2.6-1.155C870.306,774.578,870.595,773.712,870.595,772.845z M974.876,714.204v-25.132
		c0-11.266-1.444-21.087-3.755-29.176c-2.6-8.088-6.066-14.732-10.688-19.932c-4.622-5.2-10.11-8.955-16.466-11.266
		c-6.354-2.601-13.288-3.756-21.087-3.467c-7.511,0-14.443,1.155-20.799,3.467c-6.355,2.6-11.844,6.354-16.466,11.266
		c-4.622,5.199-8.377,11.844-10.688,19.932c-2.6,8.089-3.755,17.91-4.044,29.176v25.132c0,11.267,1.444,21.088,4.044,29.176
		c2.601,8.089,6.066,14.732,10.688,19.933c4.622,5.199,10.11,8.955,16.466,11.266c6.355,2.6,13.288,3.755,20.799,3.755
		s14.443-1.155,21.087-3.755c6.355-2.311,11.844-6.355,16.466-11.266c4.622-4.911,8.377-11.844,10.688-19.933
		C973.721,735.292,974.876,725.471,974.876,714.204z M965.921,714.204c0,10.399-1.155,19.065-3.177,26.287
		c-2.022,7.222-5.2,12.999-8.955,17.044c-3.756,4.333-8.378,7.51-13.577,9.532s-10.977,2.889-17.043,2.889
		s-11.844-0.866-17.044-2.889c-5.199-2.022-9.821-5.199-13.577-9.532c-3.755-4.334-6.933-10.111-8.955-17.044
		c-2.311-7.222-3.177-15.888-3.177-26.287v-25.132c0-10.399,1.155-19.065,3.177-25.998c2.022-7.222,5.2-12.999,8.955-17.332
		c4.045-4.333,8.378-7.511,13.577-9.244c5.2-2.022,10.978-2.889,17.044-2.889c6.354,0,11.844,0.866,17.043,2.889
		s9.821,4.911,13.577,9.244c4.044,4.333,6.933,10.11,8.955,17.332c2.021,6.933,3.177,15.888,3.177,25.998V714.204z
		 M1082.914,767.934V629.854c0-1.155-0.289-2.022-0.867-2.6c-0.577-0.867-1.444-1.156-2.6-1.156h-2.6
		c-0.866,0-1.733,0.289-2.312,1.156c-0.577,0.866-0.866,1.732-0.866,2.6v138.079c0,0.289,0,0.867-0.289,1.156
		c0,0.289-0.289,0.577-0.866,0.577c-0.578,0-0.578,0-0.867-0.288c-0.288-0.289-0.577-0.578-0.866-0.867l-67.885-137.213
		c-0.577-1.444-1.444-2.6-2.022-3.467c-0.866-0.866-1.732-1.733-2.889-2.311c-1.155-0.578-2.889-0.867-4.621-0.867
		c-2.889,0-5.2,0.867-7.223,2.601c-1.732,1.732-2.889,4.333-2.889,7.222v138.368c0,1.155,0.289,2.022,0.867,2.6
		c0.578,0.867,1.444,1.156,2.6,1.156h2.022c0.866,0,2.021-0.578,2.6-1.156c0.578-0.866,0.866-1.444,0.866-2.6V634.477
		c0-0.578,0.289-0.867,0.289-1.156c0.289-0.288,0.578-0.288,0.578-0.288c0.289,0,0.866,0.288,0.866,0.288
		c0.289,0.289,0.578,0.578,0.578,0.867l68.462,137.213c0.578,1.155,1.155,2.022,1.733,2.6c0.578,0.867,1.444,1.444,2.022,2.022
		c0.866,0.866,2.021,1.155,2.889,1.444c0.866,0,2.311,0.289,3.755,0.289h0.289c1.733,0,3.178-0.578,4.622-1.444
		s2.6-2.022,3.178-3.467C1082.625,771.979,1082.914,770.245,1082.914,767.934z M1175.641,739.336c0-4.622-0.866-8.955-2.6-12.422
		c-1.444-3.755-4.044-7.221-6.933-10.398c-3.178-3.178-6.934-6.355-11.266-9.533c-4.334-3.178-9.533-6.355-15.021-9.532l-12.999-7.8
		c-6.066-3.755-11.267-6.933-15.021-10.11c-4.044-3.178-7.222-6.355-9.244-9.821c-2.022-3.467-3.178-7.222-3.178-11.267
		c0-5.777,1.444-10.399,4.044-13.865c2.601-3.756,6.934-6.355,12.422-8.089c5.488-1.732,12.999-2.6,21.665-2.6
		c2.6,0,5.488,0,8.377,0.289c2.89,0.289,6.066,0.289,8.955,0.578c2.889,0.288,5.489,0.577,7.8,0.866s4.044,0.289,5.199,0.289
		c1.156,0,2.022-0.289,2.889-0.867c0.867-0.288,1.156-1.155,1.156-2.021v-2.6c0-0.867-0.289-1.733-0.867-2.022
		c-0.577-0.578-1.444-0.866-2.6-0.866c-4.333-0.289-9.244-0.867-14.443-1.444c-5.199-0.289-10.399-0.578-15.888-0.578
		c-4.911,0-9.533,0.289-14.155,0.866c-4.621,0.578-8.954,1.733-12.999,3.178c-4.044,1.444-7.511,3.467-10.688,5.777
		c-2.889,2.6-5.489,5.777-7.222,9.533c-1.733,3.755-2.601,8.377-2.601,13.576c0,4.622,0.867,8.378,2.312,12.133
		c1.732,3.467,3.755,6.933,6.644,9.821c2.889,3.178,6.355,6.066,10.11,8.666c4.045,2.89,8.089,5.489,12.711,8.378l12.999,7.8
		c5.777,3.466,10.399,6.644,14.443,9.243c4.044,2.601,7.222,5.2,9.821,7.511s4.333,4.911,5.488,7.8
		c1.156,2.889,1.733,6.066,1.733,9.821c0,4.333-0.577,8.089-1.733,11.844c-1.155,3.756-2.889,6.933-5.777,9.533
		c-2.889,2.6-6.644,4.91-11.555,6.354c-4.91,1.444-11.266,2.312-18.776,2.312c-3.755,0-7.222,0-10.399-0.289
		c-3.467-0.289-6.644-0.578-9.821-0.867c-3.178-0.288-6.645-0.866-10.11-0.866h-0.289c-0.289,0-0.289,0-0.289,0
		c-1.155,0-2.022,0.289-2.6,0.578c-0.867,0.288-1.155,1.155-1.155,2.021v2.601c0,0.866,0.288,1.732,1.155,2.311
		c0.578,0.578,1.444,0.866,2.6,0.866c4.044,0.578,8.666,0.867,13.865,1.444c5.2,0.578,10.978,0.867,17.621,0.867
		c7.8,0,14.444-0.867,19.933-2.312s10.11-3.466,13.577-6.066c3.466-2.6,6.354-5.488,8.377-8.954
		c2.022-3.467,3.467-6.934,4.044-10.399C1175.063,746.847,1175.641,743.092,1175.641,739.336z M1278.768,723.448v-93.594
		c0-1.155-0.289-2.022-0.866-2.6c-0.578-0.867-1.445-1.156-2.601-1.156h-2.021c-1.155,0-2.022,0.289-2.601,1.156
		c-0.577,0.866-0.866,1.732-0.866,2.6v93.594c0,9.821-1.155,18.198-3.755,25.132c-2.6,6.933-6.645,12.133-12.422,15.888
		s-13.288,5.488-22.82,5.488c-9.533,0-17.043-2.022-22.821-5.488c-5.777-3.467-10.11-8.955-12.71-15.888
		c-2.6-6.934-3.755-15.311-3.755-25.132v-93.594c0-1.155-0.289-2.022-0.867-2.6c-0.577-0.867-1.444-1.156-2.6-1.156h-2.022
		c-0.866,0-2.021,0.289-2.6,1.156c-0.577,0.866-0.866,1.732-0.866,2.6v93.594c0,11.555,1.733,21.376,5.199,29.465
		c3.467,8.088,8.666,14.443,15.888,18.776c7.223,4.333,16.177,6.644,27.154,6.644c10.977,0,19.932-2.311,27.153-6.644
		c6.934-4.333,12.422-10.688,15.6-18.776C1277.323,744.824,1278.768,735.003,1278.768,723.448z M1366.006,773.712v-1.733
		c0-1.156-0.288-2.022-1.155-2.312c-0.866-0.577-1.733-0.866-2.889-0.866h-46.219c-3.178,0-6.066-0.289-8.378-0.866
		c-2.311-0.578-4.044-2.022-5.488-4.045c-1.155-2.021-2.022-5.199-2.022-9.243V630.144c0-1.156-0.288-2.022-0.866-2.601
		c-0.578-0.866-1.444-1.155-2.6-1.155h-2.022c-0.866,0-2.022,0.289-2.6,1.155c-0.578,0.867-0.867,1.733-0.867,2.601v124.503
		c0,5.777,0.867,10.11,2.889,13.288c2.022,3.466,4.622,5.777,8.378,7.222c3.466,1.444,8.088,2.021,13.288,2.021h46.219
		c1.155,0,2.022-0.289,2.889-0.866C1365.428,775.733,1366.006,774.578,1366.006,773.712z M1462.777,631.299v-2.022
		c0-1.155-0.288-2.022-1.155-2.6c-0.866-0.578-1.733-0.866-2.889-0.866h-96.193c-1.156,0-2.022,0.288-2.6,0.866
		c-0.867,0.578-1.156,1.444-1.156,2.6v2.022c0,0.866,0.289,1.733,1.156,2.311c0.577,0.578,1.443,0.867,2.6,0.867h43.908v138.946
		c0,1.155,0.289,2.021,0.866,2.6c0.578,0.866,1.444,1.155,2.601,1.155h2.021c1.156,0,1.733-0.578,2.6-1.155
		c0.578-0.866,0.867-1.444,0.867-2.6V634.477h43.619c1.155,0,2.022-0.289,2.889-0.867
		C1462.489,633.031,1462.777,632.165,1462.777,631.299z M1564.749,714.204v-25.132c0-11.266-1.444-21.087-3.756-29.176
		c-2.6-8.088-6.354-14.732-10.688-19.932c-4.622-5.2-10.111-8.955-16.466-11.266c-6.355-2.601-13.288-3.756-20.799-3.467
		c-7.511,0-14.443,1.155-21.088,3.467c-6.354,2.6-11.843,6.354-16.465,11.266c-4.622,5.199-8.089,11.844-10.688,19.932
		c-2.6,8.089-3.756,17.91-3.756,29.176v25.132c0,11.267,1.445,21.088,3.756,29.176c2.6,8.089,6.066,14.732,10.688,19.933
		c4.621,5.199,10.11,8.955,16.465,11.266c6.355,2.6,13.288,3.755,21.088,3.755s14.443-1.155,20.799-3.755
		c6.354-2.311,11.844-6.355,16.466-11.266c4.621-5.2,8.377-11.844,10.688-19.933
		C1563.593,735.292,1564.749,725.471,1564.749,714.204z M1556.083,714.204c0,10.399-1.156,19.065-3.467,26.287
		c-2.022,7.222-5.199,12.999-8.955,17.044c-3.755,4.333-8.377,7.51-13.577,9.532c-5.199,2.022-10.977,2.889-17.043,2.889
		s-11.844-0.866-17.044-2.889c-5.199-2.022-9.821-5.199-13.576-9.532c-4.045-4.334-6.934-10.111-8.955-17.044
		c-2.022-7.222-3.178-15.888-3.178-26.287v-25.132c0-10.399,1.156-19.065,3.178-25.998c2.022-7.222,5.199-12.999,8.955-17.332
		c3.755-4.333,8.377-7.511,13.576-9.244c5.2-2.022,10.978-2.889,17.044-2.889c6.355,0,11.844,0.866,17.043,2.889
		c5.2,2.022,9.822,4.911,13.577,9.244c3.756,4.333,6.934,10.11,8.955,17.332c2.311,6.933,3.178,15.888,3.467,25.998V714.204z
		 M1669.319,774c0-0.288,0-0.866-0.288-1.444c-0.289-0.577-0.289-0.866-0.866-1.444l-41.021-63.262
		c8.089-1.445,14.732-3.467,20.222-6.934c5.199-3.178,9.532-7.511,12.132-12.999c2.601-5.488,4.045-12.421,4.045-20.51v-1.155
		c0-7.8-1.156-14.154-3.467-19.644c-2.312-5.199-5.777-9.532-10.399-12.71s-10.399-5.488-17.332-6.933s-15.021-2.022-23.977-2.022
		c-2.311,0-4.621,0-7.799,0c-2.889,0-5.777,0.289-8.666,0.289c-2.889,0.289-5.777,0.289-8.378,0.289c-2.6,0-4.911,0.289-6.644,0.289
		c-0.867,0-1.733,0.577-2.601,1.444c-0.577,0.866-0.866,1.444-1.155,2.6v143.568c0,1.155,0.289,2.022,0.867,2.6
		c0.577,0.866,1.443,1.155,2.6,1.155h2.021c1.156,0,2.022-0.577,2.601-1.155c0.577-0.866,0.866-1.444,0.866-2.6v-64.707
		c0,0,0.578,0,2.022,0c1.155,0,2.889,0,4.911,0c2.021,0,4.332,0,6.644,0c2.311,0,4.622,0,6.933,0c2.312,0,4.045,0,5.777,0
		c1.156,0,2.022,0,2.889,0c0.867,0,1.733,0,2.601,0c0.577,0,1.155,0,1.444,0c0.577,0,1.155,0,1.732,0l43.331,66.44
		c0.288,0.288,0.866,0.866,1.444,1.155s1.155,0.577,1.733,0.577h2.6c1.155,0,2.022-0.288,2.6-0.866
		C1669.03,775.733,1669.319,774.867,1669.319,774z M1654.587,667.407c0,6.355-0.866,11.844-2.889,16.177
		c-2.021,4.333-4.621,7.511-8.377,10.11c-3.755,2.6-8.666,4.333-14.443,5.2c-5.777,0.866-12.711,1.444-20.51,1.444
		c-1.444,0-3.467,0-5.777,0s-4.911,0-7.511,0s-5.199,0-7.511,0c-2.311,0-4.044,0-5.488,0v-65.862
		c2.022-0.289,4.622-0.289,7.511-0.578s6.065-0.289,9.243-0.289s6.355,0,9.244,0c7.511,0,14.155,0.578,19.933,1.444
		c5.777,1.155,10.688,2.889,14.443,5.488c4.044,2.601,6.933,5.778,8.955,10.11c2.021,4.045,2.889,9.533,2.889,15.889v0.866H1654.587
		z M1685.208,773.134V629.565c0-1.155-0.289-2.022-0.867-2.6c-0.577-0.867-1.444-1.156-2.6-1.156h-2.022
		c-1.155,0-2.021,0.289-2.6,1.156c-0.577,0.866-0.866,1.733-0.866,2.6v143.568c0,1.155,0.289,2.022,0.866,2.6
		c0.578,0.866,1.444,1.155,2.6,1.155h2.022c1.155,0,2.022-0.577,2.6-1.155C1684.919,775.156,1685.208,774.289,1685.208,773.134z
		 M1801.333,774.578c0-0.289,0-0.578,0-0.866c0-0.289-0.288-0.867-0.288-1.156l-41.598-137.791c-0.866-3.177-2.6-5.488-4.622-7.222
		c-2.311-1.733-4.91-2.6-8.377-2.6s-6.066,0.866-8.377,2.6c-2.312,1.733-3.756,4.333-4.911,7.222l-41.598,137.791
		c0,0.289-0.288,0.578-0.288,0.867s0,0.577,0,0.866c0,0.867,0.288,1.733,0.866,2.311c0.577,0.578,1.444,0.867,2.311,0.867h2.601
		c0.866,0,1.443-0.289,2.021-0.867c0.578-0.577,0.867-1.155,1.156-1.732l16.754-54.886h58.641l17.043,54.886
		c0.289,0.866,0.578,1.444,1.156,2.021c0.577,0.578,1.444,0.867,2.021,0.867h2.312c1.155,0,2.021-0.289,2.6-0.867
		C1801.044,776.312,1801.333,775.444,1801.333,774.578z M1773.313,711.315h-54.02l22.243-74.239
		c0.289-1.155,0.866-2.022,1.444-2.889c0.578-0.578,1.733-1.156,3.178-1.156s2.6,0.578,3.178,1.156
		c0.866,0.866,1.155,1.733,1.444,2.889L1773.313,711.315z"/>
	
		<linearGradient id="SVGID_1_" gradientUnits="userSpaceOnUse" x1="-14882.9453" y1="4056.9453" x2="-14882.9453" y2="1982.6172" gradientTransform="matrix(0.0819 0 0 0.0819 1350.7795 485.7078)">
		<stop  offset="0" style="stop-color:#21505A"/>
		<stop  offset="0.1216" style="stop-color:#07757F"/>
		<stop  offset="0.4902" style="stop-color:#008B91"/>
		<stop  offset="0.8196" style="stop-color:#057985"/>
		<stop  offset="1" style="stop-color:#235D69"/>
	</linearGradient>
	<path fill="url(#SVGID_1_)" d="M103.355,676.362v120.459c11.555,21.087,57.485,21.087,57.485,21.087l0,0V648.053
		C160.552,648.053,113.466,652.675,103.355,676.362z"/>
	
		<linearGradient id="SVGID_2_" gradientUnits="userSpaceOnUse" x1="-11686.5498" y1="1460.3184" x2="-8419.3027" y2="1460.3184" gradientTransform="matrix(0.0819 0 0 0.0819 1350.7795 485.7078)">
		<stop  offset="0" style="stop-color:#21505A"/>
		<stop  offset="0.1294" style="stop-color:#116D75"/>
		<stop  offset="1" style="stop-color:#008B91"/>
	</linearGradient>
	<path fill="url(#SVGID_2_)" d="M660.586,564.569c0,30.62-54.886,32.643-54.886,32.643l0,0H401.469c0,0-19.065,36.976,2.022,53.729
		l0,0h203.365c56.04,0,54.885-91.282,54.019-91.282l0,0C660.875,559.37,660.586,561.104,660.586,564.569L660.586,564.569z"/>
	
		<linearGradient id="SVGID_3_" gradientUnits="userSpaceOnUse" x1="-15236.6729" y1="1930.918" x2="-11969.4775" y2="1930.918" gradientTransform="matrix(0.0819 0 0 0.0819 1350.7795 485.7078)">
		<stop  offset="0" style="stop-color:#008B91"/>
		<stop  offset="0.8706" style="stop-color:#106E76"/>
		<stop  offset="1" style="stop-color:#21505A"/>
	</linearGradient>
	<path fill="url(#SVGID_3_)" d="M157.374,598.078c-63.262,0-53.729,116.993-53.729,86.373l0,0c0-30.621,54.885-32.643,54.885-32.643
		l0,0h204.231c0,0,19.065-36.976-2.022-53.73l0,0H157.374z"/>
	
		<linearGradient id="SVGID_4_" gradientUnits="userSpaceOnUse" x1="-8776.3594" y1="1361.7266" x2="-8776.3594" y2="-1326.4375" gradientTransform="matrix(0.0819 0 0 0.0819 1350.7795 485.7078)">
		<stop  offset="0" style="stop-color:#21505A"/>
		<stop  offset="0.1216" style="stop-color:#07757F"/>
		<stop  offset="0.4902" style="stop-color:#008B91"/>
		<stop  offset="0.8196" style="stop-color:#057985"/>
		<stop  offset="1" style="stop-color:#235D69"/>
	</linearGradient>
	<path fill="url(#SVGID_4_)" d="M603.679,377.093v220.119c0,0,53.729-1.155,56.907-29.465l0,0V405.402
		C649.031,377.093,603.679,377.093,603.679,377.093z"/>
	
		<linearGradient id="SVGID_5_" gradientUnits="userSpaceOnUse" x1="-11596.8203" y1="-1413.418" x2="-8426.5898" y2="-1413.418" gradientTransform="matrix(0.0819 0 0 0.0819 1350.7795 485.7078)">
		<stop  offset="0" style="stop-color:#21505A"/>
		<stop  offset="1" style="stop-color:#008B91"/>
	</linearGradient>
	<path fill="url(#SVGID_5_)" d="M606.567,324.229H428.623c-21.087,16.755-27.442,53.73-27.442,53.73l0,0h204.23
		c0,0,54.886,2.021,54.886,32.642l0,0C660.297,441.222,669.541,324.229,606.567,324.229z"/>
	
		<linearGradient id="SVGID_6_" gradientUnits="userSpaceOnUse" x1="-15244.8477" y1="4157.4961" x2="-12083.6484" y2="4157.4961" gradientTransform="matrix(0.0819 0 0 0.0819 1350.7795 485.7078)">
		<stop  offset="0" style="stop-color:#29C5F4"/>
		<stop  offset="0.651" style="stop-color:#29C5F4"/>
		<stop  offset="0.949" style="stop-color:#2F8AA2"/>
		<stop  offset="1" style="stop-color:#21505A"/>
	</linearGradient>
	<path fill="url(#SVGID_6_)" d="M156.508,871.928h177.655c21.087-16.755,27.154-53.73,27.154-53.73l0,0H157.663
		c0,0-54.597-2.021-54.597-32.643l0,0c0-3.466,0-5.199-0.289-5.199l0,0C101.622,780.355,100.756,871.928,156.508,871.928z"/>
	<path fill="#29C5F4" d="M346.584,382.582c0,0,0.867-58.353,87.816-58.353c0,0-29.465,19.933-29.465,58.93v429.55
		c0,0,0.289,58.93-76.839,58.93c0,0,18.777-10.978,18.777-57.774L346.584,382.582z"/>
	<path fill="#373435" d="M814.265,873.66c0-0.866-0.578-1.444-1.444-1.444h-21.376c-4.045,0-6.355-0.866-6.355-5.777v-21.087h27.731
		c1.155,0,1.444-0.578,1.444-1.444v-0.867c0-0.866-0.578-1.444-1.444-1.444h-27.731v-18.198c0-4.911,2.6-5.777,6.355-5.777h21.376
		c1.155,0,1.444-0.289,1.444-1.444v-0.578c0-0.866-0.578-1.444-1.444-1.444h-21.376c-6.355,0-10.111,2.311-10.111,9.244v42.753
		c0,6.933,3.756,9.243,10.111,9.243h21.376c1.155,0,1.444-0.577,1.444-1.444V873.66z M874.639,844.484
		c0-9.821-5.777-13.576-12.711-13.576c-4.333,0-8.954,1.443-13.288,3.466c-2.021-2.6-4.91-3.466-7.799-3.466
		c-4.333,0-9.244,2.021-12.422,3.466v-1.444c0-0.866-0.577-1.733-1.444-1.733h-0.577c-0.867,0-1.444,0.867-1.444,1.733v41.02
		c0,0.867,0.288,1.444,1.155,1.444h1.155c0.866,0,1.155-0.577,1.155-1.444v-36.397c3.756-2.022,8.089-3.467,11.844-3.467
		c4.333,0,7.8,2.312,7.8,10.11v29.754c0,0.867,0.289,1.444,1.155,1.444h1.155c0.867,0,1.155-0.577,1.155-1.444v-29.754
		c0-2.889-0.577-5.199-1.155-7.222c3.467-1.733,7.511-2.889,11.267-2.889c6.065,0,9.532,2.601,9.532,10.399v29.465
		c0,0.867,0.578,1.444,1.444,1.444h0.866c0.867,0,1.444-0.577,1.444-1.444v-29.465H874.639z M917.392,850.84
		c0-11.844-4.622-19.932-16.178-19.932c-4.621,0-10.11,0.866-13.865,1.444c-0.866,0.288-1.155,0.577-1.155,1.444v56.04
		c0,0.867,0.577,1.444,1.444,1.444h0.866c0.867,0,1.444-0.577,1.444-1.444v-15.31c3.178,0.578,8.089,1.155,11.555,1.155
		c10.688,0,16.177-6.644,16.177-19.644v-5.199H917.392z M913.925,856.328c0,10.978-3.467,16.466-12.422,16.466
		c-3.177,0-8.377-0.289-11.555-1.155v-36.687c2.889-0.578,7.511-1.155,11.555-1.155c9.244,0,12.422,6.354,12.422,16.754V856.328z
		 M945.123,832.063c0-0.867-0.867-1.155-2.312-1.155c-4.044,0-7.222,1.155-11.555,3.755v-1.733c0-0.866-0.578-1.733-1.444-1.733
		h-0.577c-0.867,0-1.445,0.867-1.445,1.733v41.02c0,0.867,0.578,1.444,1.733,1.444h0.578c0.866,0,1.444-0.577,1.444-1.444v-36.108
		c4.911-3.178,8.377-3.755,11.555-3.755c1.444,0,2.311-0.289,2.311-1.445v-0.577H945.123z M985.275,850.551
		c0-11.844-4.911-19.643-16.466-19.643c-10.977,0-16.754,8.377-16.754,19.643v5.488c0,15.6,8.377,19.933,18.487,19.933
		c3.756,0,8.378-0.578,12.422-1.444c1.155-0.289,1.444-0.578,1.444-1.444v-0.578c0-0.866-0.578-1.155-1.156-1.155
		c-0.288,0-0.288,0-0.577,0c-4.044,0.866-8.666,1.444-12.133,1.444c-8.377,0-15.021-2.889-15.021-16.755v-1.732h28.021
		c0.867,0,1.444-0.578,1.444-1.445v-2.311H985.275z M981.521,851.129h-25.998v-0.289c0-9.821,4.044-16.466,12.999-16.466
		c9.243,0,12.999,6.066,12.999,16.466V851.129z M1021.962,864.705c0-5.488-3.467-8.088-10.399-11.844l-5.488-2.889
		c-4.911-2.889-8.088-4.91-8.088-8.666c0-6.066,4.044-6.933,9.243-6.933c4.622,0,9.244,0.578,11.555,0.866h0.289
		c0.867,0,1.444-0.288,1.444-1.443v-0.867c0-0.866-0.577-1.155-1.733-1.444c-2.889-0.289-5.777-0.866-11.844-0.866
		c-6.354,0-12.71,2.6-12.71,10.11c0,5.488,3.756,8.377,10.11,11.844l5.2,2.889c6.933,3.755,8.666,5.777,8.666,8.955
		c0,6.644-4.622,8.377-10.399,8.377c-3.467,0-8.089-0.578-12.133-1.444h-0.578c-0.866,0-1.443,0.289-1.443,1.155v0.866
		c0,0.578,0.577,1.156,1.732,1.445c2.889,0.577,8.377,1.155,11.844,1.155C1015.318,875.972,1021.962,873.66,1021.962,864.705z
		 M1060.671,845.929c0-8.955-2.889-15.021-13.866-15.021c-5.488,0-8.088,0.288-11.844,0.866c-1.155,0.289-2.021,0.577-2.021,1.444
		v0.578c0,0.866,0.866,1.155,1.444,1.155h0.289c4.044-0.289,6.354-0.867,11.843-0.867c8.089,0,10.399,3.467,10.399,11.844v2.889
		h-6.354c-15.021,0-20.51,4.044-20.51,12.711v1.155c0,10.399,6.354,13.288,12.71,13.288c5.199,0,10.11-2.022,13.865-4.044v2.021
		c0,0.867,0.867,1.733,1.733,1.733h0.289c0.866,0,1.733-0.866,1.733-1.733v-28.021H1060.671z M1056.915,868.75
		c-5.488,2.889-9.532,4.044-14.154,4.044c-4.911,0-8.955-2.312-8.955-10.11v-0.867c0-6.933,4.333-9.532,16.755-9.532h6.354V868.75z
		 M1095.046,815.887c0-0.867-0.577-1.444-1.444-1.444h-0.866c-0.867,0-1.444,0.577-1.444,1.444v64.707
		c0,6.354-1.444,7.799-8.089,7.799h-1.155c-0.866,0-1.733,0.289-1.733,1.156v0.866c0,0.866,0.867,1.155,1.733,1.155h1.155
		c8.955,0,11.844-3.467,11.844-11.266V815.887L1095.046,815.887z M1139.821,832.93c0-0.866-0.578-1.444-1.444-1.444h-0.578
		c-0.866,0-1.444,0.578-1.444,1.444v36.687c-4.333,2.022-8.955,3.467-12.999,3.467h-0.289c-6.066,0-10.977-3.178-10.977-12.422
		V832.93c0-0.866-0.578-1.444-1.444-1.444h-0.867c-0.866,0-1.444,0.578-1.444,1.444v27.442c0,11.267,6.645,15.6,14.443,15.6
		c4.333,0,8.955-1.444,13.288-3.467v1.444c0,0.867,0.578,1.733,1.444,1.733h0.578c0.866,0,1.444-0.866,1.444-1.733v-41.02H1139.821z
		 M1134.044,812.131c0-0.289-0.289-0.577-0.867-0.577h-2.311c-0.867,0-1.155,0.288-2.022,1.155l-8.377,10.688
		c-0.289,0.288-0.289,0.577-0.289,0.866s0.289,0.578,0.866,0.578h2.022c0.867,0,1.155-0.578,1.733-1.444l8.955-10.688
		C1134.044,812.42,1134.044,812.131,1134.044,812.131z M1182.862,846.507c0-11.555-6.644-15.599-14.443-15.599
		c-4.333,0-8.955,1.444-13.288,3.466v-1.444c0-0.866-0.577-1.733-1.444-1.733h-0.577c-0.867,0-1.444,0.867-1.444,1.733v41.02
		c0,0.867,0.577,1.444,1.732,1.444h0.578c0.866,0,1.444-0.577,1.444-1.444v-36.687c4.044-2.022,8.955-3.466,12.999-3.466
		c6.355,0,11.266,2.889,11.266,12.421v27.442c0,0.867,0.578,1.444,1.445,1.444h0.577c0.866,0,1.444-0.577,1.444-1.444v-27.153
		H1182.862z M1198.751,815.598c0-0.866-0.578-1.444-1.445-1.444h-0.577c-0.866,0-1.444,0.578-1.444,1.444v6.066
		c0,0.866,0.578,1.444,1.444,1.444h0.577c0.867,0,1.445-0.578,1.445-1.444V815.598z M1198.751,832.93
		c0-0.866-0.578-1.444-1.445-1.444h-0.577c-0.866,0-1.444,0.578-1.444,1.444v41.309c0,0.866,0.578,1.444,1.444,1.444h0.577
		c0.867,0,1.445-0.578,1.445-1.444V832.93z M1244.104,850.551c0-12.421-5.778-19.643-17.044-19.643s-17.043,7.222-17.043,19.643
		v5.777c0,12.711,5.777,19.644,17.043,19.644s17.044-7.222,17.044-19.644V850.551z M1240.348,856.328
		c0,10.11-3.755,16.466-13.288,16.466c-9.532,0-13.288-6.355-13.288-16.466v-5.777c0-10.11,3.756-16.466,13.288-16.466
		c9.533,0,13.288,6.355,13.288,16.466V856.328z M1271.546,832.063c0-0.867-0.867-1.155-2.311-1.155
		c-4.045,0-7.223,1.155-11.556,3.755v-1.733c0-0.866-0.577-1.733-1.444-1.733h-0.577c-0.867,0-1.444,0.867-1.444,1.733v41.02
		c0,0.867,0.866,1.444,1.732,1.444h0.578c0.867,0,1.444-0.577,1.444-1.444v-36.108c4.911-3.178,8.378-3.755,11.555-3.755
		c1.444,0,2.312-0.289,2.312-1.445v-0.577H1271.546z M1327.587,815.887c0-0.867-0.578-1.444-1.444-1.444h-0.867
		c-0.866,0-1.444,0.577-1.444,1.444v16.177c-3.178-0.578-8.088-1.155-11.555-1.155c-10.688,0-16.177,6.644-16.177,19.643v5.488
		c0,11.844,4.622,19.933,16.177,19.933c4.622,0,10.11-0.867,13.866-1.444c0.866-0.289,1.155-0.578,1.155-1.444v-57.196H1327.587z
		 M1323.831,871.928c-2.889,0.577-7.511,1.155-11.555,1.155c-9.244,0-12.422-6.355-12.422-16.755v-5.488
		c0-10.977,3.467-16.466,12.422-16.466c3.178,0,8.377,0.289,11.555,1.155V871.928z M1370.917,850.551
		c0-11.844-4.911-19.643-16.466-19.643c-10.977,0-16.754,8.377-16.754,19.643v5.488c0,15.6,8.377,19.933,18.487,19.933
		c3.756,0,8.378-0.578,12.422-1.444c1.155-0.289,1.444-0.578,1.444-1.444v-0.578c0-0.866-0.578-1.155-1.155-1.155
		c-0.289,0-0.289,0-0.578,0c-4.045,0.866-8.666,1.444-12.133,1.444c-8.377,0-15.021-2.889-15.021-16.755v-1.732h28.021
		c0.867,0,1.444-0.578,1.444-1.445v-2.311H1370.917z M1367.45,851.129h-25.998v-0.289c0-9.821,3.756-16.466,12.999-16.466
		c9.244,0,12.999,6.066,12.999,16.466V851.129z M1441.401,874.527c0-0.289,0-0.578-0.289-0.867l-17.043-55.752
		c-0.867-2.6-2.6-4.044-5.2-4.044c-2.889,0-4.622,1.444-5.488,4.044l-17.044,55.752c0,0.289,0,0.289,0,0.867
		c0,0.866,0.578,1.444,1.445,1.444h1.155c0.577,0,1.155-0.578,1.444-1.155l6.644-22.243h23.688l6.933,22.243
		c0.289,0.866,0.578,1.155,1.445,1.155h0.866C1440.823,875.972,1441.401,875.394,1441.401,874.527z M1429.847,848.817h-21.954
		l8.955-30.042c0.288-0.867,0.866-1.444,2.021-1.444c1.156,0,1.733,0.866,2.022,1.733L1429.847,848.817z M1490.221,839.862
		c0-19.354-10.11-25.998-24.266-25.998c-6.354,0-10.977,0.289-13.577,0.578c-0.866,0.289-1.444,0.866-1.444,1.444v57.773
		c0,0.867,0.578,1.444,1.444,1.444c2.601,0.289,6.934,0.578,13.577,0.578c14.155,0,24.266-6.933,24.266-25.998V839.862z
		 M1486.465,850.262c0,17.332-8.954,22.821-20.51,22.821c-4.91,0-7.511,0-11.266-0.289v-54.886
		c3.755-0.289,6.355-0.577,11.266-0.577c11.556,0,20.51,5.199,20.51,22.82V850.262z M1548.572,818.197
		c0-2.889-1.733-4.044-4.044-4.044c-2.022,0-3.178,1.155-3.756,2.6l-14.443,30.331c-0.289,0.867-0.578,1.156-1.155,1.156
		c-0.578,0-0.867-0.289-1.155-1.156l-14.444-30.331c-0.577-1.444-2.021-2.6-3.755-2.6c-2.6,0-4.044,1.444-4.044,4.044v56.041
		c0,0.866,0.577,1.444,1.444,1.444h0.866c0.866,0,1.444-0.578,1.444-1.444v-56.041c0-0.289,0.289-0.578,0.578-0.578
		c0.288,0,0.577,0.289,0.866,0.867l14.443,30.042c1.155,2.312,2.312,2.889,4.044,2.889c1.733,0,2.889-0.577,4.334-2.889
		l14.154-30.042c0.289-0.578,0.578-0.867,0.866-0.867c0.289,0,0.578,0.289,0.578,0.578v56.041c0,0.866,0.578,1.444,1.444,1.444
		h0.866c0.867,0,1.444-0.578,1.444-1.444v-56.041H1548.572z M1597.103,852.573c0-0.867-0.578-1.444-1.444-1.444h-16.755
		c-0.866,0-1.444,0.577-1.444,1.444v0.577c0,0.867,0.578,1.444,1.444,1.444h16.755c1.155,0,1.444-0.288,1.444-1.444V852.573z
		 M1664.987,815.887c0-0.867-0.578-1.444-1.445-1.444h-0.866c-0.866,0-1.444,0.577-1.444,1.444v38.131
		c0,11.844-4.333,18.776-15.888,18.776s-15.888-6.933-15.888-18.776v-38.131c0-0.867-0.578-1.444-1.444-1.444h-0.867
		c-0.866,0-1.444,0.577-1.444,1.444v38.131c0,13.865,6.066,22.243,19.644,22.243s19.354-8.378,19.354-22.243v-38.131H1664.987z
		 M1710.917,843.04c0-0.866-0.578-1.444-1.444-1.444h-27.731v-18.198c0-4.911,2.6-5.777,6.355-5.777h21.376
		c1.155,0,1.444-0.289,1.444-1.444v-0.578c0-0.866-0.578-1.444-1.444-1.444h-21.376c-6.355,0-10.111,2.311-10.111,9.244v50.552
		c0,0.867,0.578,1.444,1.445,1.444h0.866c0.866,0,1.444-0.577,1.444-1.444v-28.887h27.731c1.155,0,1.444-0.578,1.444-1.444V843.04z
		 M1762.047,874.527c0-0.289,0-0.578-0.288-0.867l-16.755-55.752c-0.866-2.6-2.601-4.044-5.2-4.044s-4.621,1.444-5.199,4.044
		l-17.043,55.752c0,0.289,0,0.289,0,0.867c0,0.866,0.288,1.444,1.155,1.444h1.155c0.578,0,1.156-0.578,1.444-1.155l6.933-22.243
		h23.688l6.934,22.243c0.289,0.866,0.578,1.155,1.444,1.155h0.866C1761.759,875.972,1762.047,875.394,1762.047,874.527z
		 M1750.781,848.817h-21.954l8.955-30.042c0.289-0.867,0.578-1.444,2.021-1.444c1.156,0,1.733,0.866,2.022,1.733L1750.781,848.817z
		 M1802.2,873.66c0-0.866-0.578-1.444-1.444-1.444h-18.776c-4.045,0-6.355-0.866-6.355-5.777v-50.552
		c0-0.867-0.578-1.444-1.444-1.444h-0.866c-0.867,0-1.445,0.577-1.445,1.444v50.552c0,6.933,3.756,9.244,10.111,9.244h18.776
		c1.155,0,1.444-0.578,1.444-1.444V873.66z"/>
</g>
</svg>
